<svg width="298" height="53" viewBox="0 0 298 53" fill="none" xmlns="http://www.w3.org/2000/svg">
<path d="M10.3135 44.7087C7.36787 44.7087 5.11529 43.799 3.55581 41.9796C2.02521 40.1602 1.17328 37.6621 1 34.4854L5.33188 33.3158C5.47627 35.5684 5.90946 37.3878 6.63145 38.774C7.3823 40.1602 8.60969 40.8533 10.3135 40.8533C11.5842 40.8533 12.5372 40.5068 13.1726 39.8137C13.8368 39.0917 14.1689 38.0665 14.1689 36.738C14.1689 35.2941 13.8657 34.0956 13.2592 33.1426C12.6528 32.1895 11.6853 31.1355 10.3569 29.9803L4.46551 24.782C3.28146 23.7424 2.41508 22.6305 1.86638 21.4465C1.34655 20.2336 1.08664 18.7607 1.08664 17.028C1.08664 14.4577 1.82306 12.465 3.2959 11.05C4.76874 9.63488 6.77584 8.92734 9.31721 8.92734C12.0896 8.92734 14.1833 9.66376 15.5984 11.1366C17.0135 12.6094 17.8654 14.8909 18.1542 17.981L13.9956 19.1073C13.8513 17.0569 13.4469 15.4829 12.7827 14.3855C12.1474 13.2592 10.9922 12.6961 9.31721 12.6961C8.07538 12.6961 7.12239 13.0282 6.45817 13.6924C5.79395 14.3277 5.46184 15.2808 5.46184 16.5515C5.46184 17.5911 5.63511 18.4719 5.98166 19.1939C6.32821 19.887 6.92024 20.5945 7.75773 21.3165L13.6924 26.5148C15.223 27.8721 16.4359 29.3449 17.3312 30.9333C18.2553 32.5217 18.7174 34.3266 18.7174 36.3482C18.7174 38.9184 17.9377 40.9544 16.3782 42.4561C14.8187 43.9578 12.7971 44.7087 10.3135 44.7087ZM22.5146 9.23057H27.4096V25.7784L35.4669 9.23057H40.0154L33.0844 24.6954L41.1416 44.3188H36.3766L29.6622 27.8577L27.4096 31.9296V44.3188H22.5146V9.23057ZM44.2224 9.23057H49.0307V44.3188H44.2224V9.23057ZM54.9675 9.23057H59.7758V44.3188H54.9675V9.23057ZM65.4526 9.23057H68.7885L78.7519 32.5361V9.23057H82.8238V44.3188H79.7049L69.6116 20.3635V44.3188H65.4526V9.23057ZM96.6994 44.752C93.5229 44.752 91.227 43.7557 89.8117 41.763C88.3964 39.7414 87.6891 36.7524 87.6891 32.796V21.0566C87.6891 18.3419 87.9632 16.1183 88.5121 14.3855C89.0895 12.6239 90.0574 11.281 91.4145 10.3569C92.8007 9.40385 94.6925 8.92734 97.0893 8.92734C100.324 8.92734 102.648 9.7504 104.064 11.3965C105.507 13.0426 106.23 15.6273 106.23 19.1506V20.4501H101.638V19.3672C101.638 17.6922 101.537 16.4071 101.334 15.5118C101.132 14.5877 100.699 13.8946 100.035 13.4325C99.3994 12.9704 98.4463 12.7394 97.1759 12.7394C95.8188 12.7394 94.8076 13.0571 94.1436 13.6924C93.4796 14.2989 93.0464 15.1219 92.844 16.1616C92.6707 17.2012 92.5841 18.5874 92.5841 20.3202V33.3158C92.5841 36.0016 92.9015 37.9365 93.5371 39.1206C94.2011 40.2757 95.4573 40.8533 97.3058 40.8533C99.1252 40.8533 100.367 40.2179 101.031 38.9473C101.724 37.6766 102.071 35.6406 102.071 32.8393V30.4135H97.6091V26.948H106.489V44.3188H103.414L102.937 40.2902C101.84 43.2647 99.7608 44.752 96.6994 44.752Z" fill="#060D10" stroke="#060D10"/>
<path d="M177.161 44.2268C174.216 44.2268 171.963 43.3171 170.404 41.4977C168.873 39.6783 168.021 37.1802 167.848 34.0035L172.18 32.8339C172.324 35.0865 172.757 36.9059 173.479 38.2921C174.23 39.6783 175.458 40.3714 177.161 40.3714C178.432 40.3714 179.385 40.0249 180.02 39.3318C180.685 38.6097 181.017 37.5846 181.017 36.2561C181.017 34.8122 180.714 33.6137 180.107 32.6607C179.501 31.7076 178.533 30.6536 177.205 29.4984L171.313 24.3001C170.129 23.2605 169.263 22.1486 168.714 20.9646C168.194 19.7516 167.934 18.2788 167.934 16.5461C167.934 13.9758 168.671 11.9831 170.144 10.5681C171.617 9.15297 173.624 8.44543 176.165 8.44543C178.937 8.44543 181.031 9.18186 182.446 10.6547C183.861 12.1275 184.713 14.409 185.002 17.4991L180.843 18.6254C180.699 16.575 180.295 15.001 179.631 13.9036C178.995 12.7773 177.84 12.2142 176.165 12.2142C174.923 12.2142 173.97 12.5463 173.306 13.2105C172.642 13.8458 172.31 14.7989 172.31 16.0695C172.31 17.1092 172.483 17.99 172.83 18.712C173.176 19.4051 173.768 20.1126 174.606 20.8346L180.54 26.0329C182.071 27.3902 183.284 28.863 184.179 30.4514C185.103 32.0398 185.565 33.8447 185.565 35.8662C185.565 38.4365 184.785 40.4725 183.226 41.9742C181.667 43.4759 179.645 44.2268 177.161 44.2268ZM198.156 44.2268C194.691 44.2268 192.25 43.2015 190.835 41.1511C189.42 39.0718 188.713 36.2128 188.713 32.574V20.1848C188.713 16.3439 189.406 13.4271 190.792 11.4344C192.178 9.44177 194.633 8.44543 198.156 8.44543C201.304 8.44543 203.557 9.29737 204.914 11.0012C206.3 12.7051 206.993 15.2176 206.993 18.5387V21.3111H202.358V18.842C202.358 17.2247 202.286 15.9829 202.141 15.1165C201.997 14.2502 201.622 13.5571 201.015 13.0372C200.438 12.5174 199.499 12.2575 198.199 12.2575C196.871 12.2575 195.875 12.5463 195.21 13.1239C194.575 13.6726 194.156 14.4523 193.954 15.4631C193.752 16.445 193.651 17.7734 193.651 19.4484V33.3538C193.651 35.1442 193.795 36.5449 194.084 37.5557C194.373 38.5664 194.835 39.2884 195.47 39.7216C196.135 40.1548 197.044 40.3714 198.199 40.3714C199.441 40.3714 200.365 40.0971 200.972 39.5483C201.578 38.9996 201.954 38.2488 202.098 37.2958C202.271 36.3428 202.358 35.0432 202.358 33.3971V30.7979H206.993V33.3971C206.993 36.8915 206.329 39.5772 205 41.4544C203.701 43.3027 201.419 44.2268 198.156 44.2268ZM211.656 8.74867H216.551V23.9103H225.562V8.74867H230.457V43.8369H225.562V27.4191H216.551V43.8369H211.656V8.74867ZM244.906 44.2268C241.469 44.2268 239 43.2593 237.498 41.3244C236.026 39.3607 235.289 36.5304 235.289 32.8339V19.5351C235.289 15.8963 236.04 13.1383 237.542 11.2612C239.043 9.38401 241.498 8.44543 244.906 8.44543C248.313 8.44543 250.754 9.39845 252.227 11.3045C253.728 13.1816 254.479 15.9252 254.479 19.5351V32.8772C254.479 36.516 253.728 39.3173 252.227 41.2811C250.725 43.2449 248.285 44.2268 244.906 44.2268ZM244.906 40.3714C246.725 40.3714 247.952 39.8372 248.588 38.7686C249.223 37.7001 249.541 36.0828 249.541 33.9169V18.5387C249.541 16.4017 249.223 14.8277 248.588 13.817C247.952 12.7773 246.725 12.2575 244.906 12.2575C243.057 12.2575 241.815 12.7773 241.18 13.817C240.545 14.8277 240.227 16.4017 240.227 18.5387V33.9169C240.227 36.0828 240.545 37.7001 241.18 38.7686C241.815 39.8372 243.057 40.3714 244.906 40.3714ZM268.257 44.2268C264.82 44.2268 262.351 43.2593 260.85 41.3244C259.377 39.3607 258.641 36.5304 258.641 32.8339V19.5351C258.641 15.8963 259.391 13.1383 260.893 11.2612C262.395 9.38401 264.849 8.44543 268.257 8.44543C271.665 8.44543 274.105 9.39845 275.578 11.3045C277.08 13.1816 277.831 15.9252 277.831 19.5351V32.8772C277.831 36.516 277.08 39.3173 275.578 41.2811C274.076 43.2449 271.636 44.2268 268.257 44.2268ZM268.257 40.3714C270.077 40.3714 271.304 39.8372 271.94 38.7686C272.574 37.7001 272.893 36.0828 272.893 33.9169V18.5387C272.893 16.4017 272.574 14.8277 271.94 13.817C271.304 12.7773 270.077 12.2575 268.257 12.2575C266.409 12.2575 265.167 12.7773 264.532 13.817C263.896 14.8277 263.579 16.4017 263.579 18.5387V33.9169C263.579 36.0828 263.896 37.7001 264.532 38.7686C265.167 39.8372 266.409 40.3714 268.257 40.3714ZM282.642 8.74867H287.537V40.3281H296.504V43.8369H282.642V8.74867Z" fill="#060D10" stroke="#060D10"/>
<path d="M154.276 42.8528C153.808 41.8818 152.741 41.3428 151.272 41.3351C150.379 41.3304 149.376 41.5252 148.372 41.8921L138.698 21.8422L145.775 7.17511C145.776 7.26985 145.777 7.36552 145.778 7.46373C145.785 8.37997 145.792 9.32729 146.106 10.2151C146.342 10.8841 146.777 11.3875 147.365 11.6712C147.365 11.6713 147.365 11.6713 147.365 11.6713C147.692 11.8288 148.06 11.9158 148.458 11.9292C149.724 11.9725 151.844 11.4633 152.144 9.91308C152.475 8.19326 150.583 7.08753 149.775 6.61543L149.673 6.55558C149.033 6.18203 148.37 5.79566 147.853 5.28555C147.699 5.13373 147.564 4.97012 147.447 4.796L148.198 3.23909C148.572 2.46392 148.245 1.52896 147.47 1.15496C146.695 0.780949 145.76 1.10735 145.386 1.88252L143.935 4.89028C143.745 5.28405 143.737 5.71883 143.875 6.10069L137.489 19.3364L131.103 6.10069C131.241 5.71883 131.233 5.28416 131.043 4.89028L129.591 1.88252C129.217 1.10735 128.283 0.780949 127.507 1.15496C126.732 1.52896 126.406 2.46392 126.78 3.23909L127.531 4.796C127.414 4.97012 127.278 5.13373 127.124 5.28555C126.607 5.79566 125.945 6.18203 125.305 6.55558L125.203 6.61543C124.394 7.08753 122.502 8.19326 122.834 9.91308C123.133 11.4633 125.254 11.9725 126.52 11.9292C126.918 11.9158 127.286 11.8288 127.612 11.6713C127.613 11.6713 127.613 11.6713 127.613 11.6713C128.2 11.3876 128.636 10.8841 128.872 10.2151C129.186 9.32718 129.193 8.37985 129.2 7.46373C129.201 7.36552 129.202 7.26985 129.203 7.17511L136.28 21.8422L126.606 41.8921C125.602 41.5251 124.599 41.3304 123.705 41.3351C122.237 41.3427 121.17 41.8817 120.701 42.8528C120.233 43.8239 120.475 44.9945 121.383 46.1487C121.876 46.7759 122.548 47.3715 123.335 47.8889L122.867 51.3527C122.846 51.5083 122.927 51.6598 123.069 51.7282C123.21 51.7964 123.38 51.7659 123.489 51.6526L125.909 49.1306C126.803 49.4249 127.688 49.5803 128.486 49.576C129.954 49.5685 131.021 49.0295 131.49 48.0582C131.958 47.0872 131.716 45.9167 130.808 44.7624C130.256 44.0599 129.479 43.3963 128.567 42.8388L137.489 24.3482L146.41 42.8386C145.498 43.3961 144.722 44.0596 144.169 44.7621C143.261 45.9165 143.019 47.0869 143.488 48.0579C143.956 49.0292 145.023 49.5682 146.492 49.5758C147.29 49.58 148.174 49.4245 149.069 49.1304L151.489 51.6524C151.598 51.7656 151.767 51.7961 151.909 51.728C152.05 51.6596 152.132 51.5081 152.111 51.3525L151.642 47.8887C152.43 47.3713 153.102 46.7757 153.595 46.1485C154.503 44.9945 154.745 43.8239 154.276 42.8528ZM148.322 7.43461C148.509 7.55027 148.703 7.66038 148.891 7.76691C149.361 8.03358 149.805 8.28534 150.169 8.62549C150.575 9.00574 150.774 9.34971 150.726 9.59396C150.663 9.92163 150.256 10.1718 149.483 10.3588C149.047 10.464 148.497 10.5668 148.106 10.4264C148.072 10.4144 148.039 10.4008 148.008 10.3858C147.492 10.1364 147.359 9.45924 147.298 8.82977C147.252 8.349 147.243 7.85079 147.234 7.36899C147.23 7.13351 147.226 6.89434 147.217 6.65379C147.529 6.91329 147.891 7.16783 148.322 7.43461ZM127.744 7.36899C127.735 7.85079 127.726 8.34889 127.68 8.82977C127.618 9.45924 127.486 10.1364 126.969 10.3858C126.938 10.4008 126.906 10.4144 126.872 10.4264C126.481 10.5668 125.931 10.464 125.495 10.3588C124.722 10.1718 124.315 9.92163 124.252 9.59396C124.204 9.34971 124.403 9.00574 124.809 8.62549C125.173 8.28546 125.617 8.03358 126.087 7.76691C126.274 7.66038 126.468 7.55027 126.656 7.43461C127.087 7.16783 127.448 6.91329 127.761 6.65379C127.752 6.89434 127.748 7.13351 127.744 7.36899ZM129.528 47.1116C129.382 47.4141 127.78 47.7192 125.528 46.6324C123.276 45.5457 122.517 44.1018 122.663 43.7993C122.786 43.5444 123.944 43.2876 125.654 43.8646L124.767 45.7038L126.729 46.6501L127.616 44.8109C129.132 45.7906 129.651 46.8569 129.528 47.1116ZM149.45 46.6324C147.198 47.7192 145.595 47.4142 145.449 47.1116C145.327 46.8569 145.846 45.7904 147.362 44.811L148.249 46.6502L150.211 45.7039L149.324 43.8647C151.034 43.2877 152.192 43.5445 152.315 43.7994C152.461 44.1017 151.702 45.5456 149.45 46.6324Z" fill="#060D10" stroke="#060D10"/>
</svg>
