<svg width="40" height="40" viewBox="0 0 40 40" fill="none" xmlns="http://www.w3.org/2000/svg">
<g clip-path="url(#clip0_6_144)">
<path d="M20 40C17.2917 40 14.7005 39.4727 12.2266 38.418C9.7526 37.3633 7.6237 35.944 5.83984 34.1602C4.05599 32.3763 2.63672 30.2474 1.58203 27.7734C0.527344 25.2995 0 22.7083 0 20C0 17.2917 0.527344 14.7005 1.58203 12.2266C2.63672 9.7526 4.05599 7.6237 5.83984 5.83984C7.6237 4.05599 9.7526 2.63672 12.2266 1.58203C14.7005 0.527344 17.2917 0 20 0C22.7083 0 25.2995 0.527344 27.7734 1.58203C30.2474 2.63672 32.3763 4.05599 34.1602 5.83984C35.944 7.6237 37.3633 9.7526 38.418 12.2266C39.4727 14.7005 40 17.2917 40 20C40 22.7083 39.4727 25.2995 38.418 27.7734C37.3633 30.2474 35.944 32.3763 34.1602 34.1602C32.3763 35.944 30.2474 37.3633 27.7734 38.418C25.2995 39.4727 22.7083 40 20 40ZM31.7578 10C31.6016 10.0781 31.3672 10.2214 31.0547 10.4297L30.293 10.9375L29.5703 11.3281L28.75 11.6016C27.7865 10.5339 26.6016 10 25.1953 10C22.1484 10 20.625 11.276 20.625 13.8281V16.1328C16.4323 15.9245 13.2161 14.388 10.9766 11.5234C10.3255 12.2005 10 12.9427 10 13.75C10 15.4688 10.638 16.7708 11.9141 17.6562C11.7578 17.6562 11.5365 17.6693 11.25 17.6953C10.9635 17.7214 10.7357 17.7214 10.5664 17.6953C10.3971 17.6693 10.2083 17.6042 10 17.5C10 18.6979 10.319 19.694 10.957 20.4883C11.5951 21.2826 12.474 21.7969 13.5938 22.0312C13.3333 22.3438 12.9688 22.5 12.5 22.5C12.0833 22.5 11.7188 22.3828 11.4062 22.1484C11.4062 23.1641 11.8945 23.9518 12.8711 24.5117C13.8477 25.0716 14.9479 25.3646 16.1719 25.3906C15.7031 26.0938 15.0195 26.6211 14.1211 26.9727C13.2227 27.3242 12.2656 27.5 11.25 27.5C10.8854 27.5 10.3841 27.4089 9.74609 27.2266C9.10807 27.0443 8.77604 26.9531 8.75 26.9531C9.16667 27.7865 10.0195 28.5026 11.3086 29.1016C12.5977 29.7005 14.2318 30 16.2109 30C17.9557 30 19.5833 29.694 21.0938 29.082C22.6042 28.4701 23.8932 27.6562 24.9609 26.6406C26.0286 25.625 26.9466 24.4661 27.7148 23.1641C28.4831 21.862 29.056 20.5143 29.4336 19.1211C29.8112 17.7279 30 16.3542 30 15C30 14.9479 30.1562 14.8372 30.4688 14.668C30.7812 14.4987 31.1458 14.2708 31.5625 13.9844C31.9792 13.6979 32.2917 13.3984 32.5 13.0859C31.0938 13.0859 30.1562 13.112 29.6875 13.1641C30.599 12.6172 31.2891 11.5625 31.7578 10Z" fill="white"/>
</g>
<defs>
<clipPath id="clip0_6_144">
<rect width="40" height="40" fill="white"/>
</clipPath>
</defs>
</svg>
